External Loads File
version=1
nRows=85
nColumns=13
Range=5.000000e-03-10 seconds
endheader
time 	forceRightX 	forceRightY 	forceRightZ 	pointRightX 	pointRightY 	pointRightZ 	forceLeftX 	forceLeftY 	forceLeftZ 	pointLeftX 	pointLeftY 	pointLeftZ 		
7.505000 -52.625254 274.453121 -0.000000 0.331628 0.495163 -0.118897 -24.208264 404.772971 -0.000000 0.171686 0.176865 -0.359505
7.510000 -56.268029 266.502944 -0.000000 0.332099 0.495155 -0.118917 -22.223677 409.068825 -0.000000 0.171426 0.176794 -0.359428
7.515000 -59.765638 259.355641 -0.000000 0.332430 0.495239 -0.118902 -20.652499 413.163212 -0.000000 0.171232 0.176663 -0.359427
7.520000 -63.058580 253.176025 -0.000000 0.332524 0.495429 -0.118771 -19.622670 416.860087 -0.000000 0.171128 0.176480 -0.359389
7.525000 -65.886591 248.095744 -0.000000 0.332596 0.495620 -0.118729 -18.860191 419.958071 -0.000000 0.171155 0.176223 -0.359357
7.530000 -68.194528 244.112146 -0.000000 0.332535 0.495869 -0.118679 -18.354308 422.243263 -0.000000 0.171280 0.176014 -0.359320
7.535000 -70.077022 241.106078 -0.000000 0.332286 0.496206 -0.118588 -18.320681 423.508819 -0.000000 0.171598 0.175700 -0.359285
7.540000 -71.380734 238.991382 -0.000000 0.331874 0.496568 -0.118513 -18.521741 423.600291 -0.000000 0.171954 0.175285 -0.359323
7.545000 -72.241222 237.597583 -0.000000 0.331296 0.496941 -0.118471 -19.213980 422.400661 -0.000000 0.172663 0.174924 -0.359219
7.550000 -72.483501 236.862490 -0.000000 0.330618 0.497409 -0.118432 -20.098088 419.894179 -0.000000 0.173371 0.174449 -0.359140
7.555000 -72.122874 236.675907 -0.000000 0.329788 0.497914 -0.118415 -21.196138 416.119508 -0.000000 0.174145 0.173991 -0.359189
7.560000 -71.279961 236.897322 -0.000000 0.328836 0.498463 -0.118403 -22.678557 411.160695 -0.000000 0.175166 0.173478 -0.359055
7.565000 -69.832902 237.473094 -0.000000 0.327787 0.499012 -0.118398 -24.242433 405.176999 -0.000000 0.176238 0.172955 -0.359061
7.570000 -67.826004 238.321007 -0.000000 0.326675 0.499584 -0.118379 -25.834508 398.358095 -0.000000 0.177360 0.172421 -0.359028
7.575000 -65.219422 239.397999 -0.000000 0.325483 0.500106 -0.118368 -27.231381 390.927534 -0.000000 0.178328 0.171854 -0.359162
7.580000 -62.319121 240.580500 -0.000000 0.324271 0.500654 -0.118372 -28.749872 383.080505 -0.000000 0.179540 0.171322 -0.359065
7.585000 -59.038718 241.879742 -0.000000 0.323005 0.501244 -0.118371 -30.038910 375.064054 -0.000000 0.180608 0.170788 -0.359225
7.590000 -55.578190 243.265721 -0.000000 0.321756 0.501725 -0.118348 -31.203262 367.087458 -0.000000 0.181835 0.170306 -0.359108
7.595000 -51.888057 244.794124 -0.000000 0.320430 0.502291 -0.118319 -31.964756 359.368004 -0.000000 0.182720 0.169790 -0.359271
7.600000 -48.309761 246.440359 -0.000000 0.319135 0.502697 -0.118245 -32.610353 352.055933 -0.000000 0.183780 0.169303 -0.359229
7.605000 -44.957773 248.222579 -0.000000 0.317777 0.503151 -0.118154 -33.064019 345.338408 -0.000000 0.184712 0.168875 -0.359236
7.610000 -41.865532 250.140080 -0.000000 0.316661 0.503585 -0.118125 -33.182097 339.413600 -0.000000 0.185590 0.168459 -0.359202
7.615000 -39.097037 252.136782 -0.000000 0.315687 0.503889 -0.118080 -32.960599 334.432828 -0.000000 0.186248 0.168034 -0.359282
7.620000 -36.975520 254.086057 -0.000000 0.314731 0.504157 -0.118003 -32.821300 330.453644 -0.000000 0.186971 0.167704 -0.359241
7.625000 -35.231288 255.950907 -0.000000 0.313946 0.504417 -0.117952 -32.449683 327.571706 -0.000000 0.187450 0.167365 -0.359267
7.630000 -33.881135 257.658473 -0.000000 0.313256 0.504621 -0.117890 -31.926939 325.822929 -0.000000 0.187731 0.167105 -0.359305
7.635000 -32.940007 259.141285 -0.000000 0.312723 0.504789 -0.117925 -31.324409 325.225655 -0.000000 0.187938 0.166876 -0.359329
7.640000 -32.248243 260.351350 -0.000000 0.312339 0.504839 -0.117937 -30.488534 325.798000 -0.000000 0.187955 0.166710 -0.359324
7.645000 -31.836465 261.217965 -0.000000 0.312079 0.504911 -0.117944 -29.497885 327.504821 -0.000000 0.187820 0.166589 -0.359337
7.650000 -31.643646 261.694818 -0.000000 0.311961 0.504885 -0.117953 -28.310741 330.284409 -0.000000 0.187548 0.166482 -0.359336
7.655000 -31.695570 261.741675 -0.000000 0.311974 0.504784 -0.117956 -27.002661 334.021191 -0.000000 0.187220 0.166464 -0.359249
7.660000 -31.855882 261.356348 -0.000000 0.312116 0.504628 -0.117961 -25.455068 338.575583 -0.000000 0.186623 0.166466 -0.359242
7.665000 -32.189187 260.538807 -0.000000 0.312399 0.504400 -0.117942 -23.803841 343.764036 -0.000000 0.185899 0.166500 -0.359274
7.670000 -32.817819 259.318681 -0.000000 0.312788 0.504224 -0.117936 -22.259769 349.387553 -0.000000 0.185212 0.166654 -0.359180
7.675000 -33.502434 257.814332 -0.000000 0.313291 0.503983 -0.117924 -20.543642 355.267789 -0.000000 0.184235 0.166758 -0.359184
7.680000 -34.515105 256.109169 -0.000000 0.313839 0.503658 -0.117939 -19.060745 361.176671 -0.000000 0.183418 0.167019 -0.359119
7.685000 -35.671471 254.340445 -0.000000 0.314432 0.503322 -0.118096 -17.585792 366.922632 -0.000000 0.182377 0.167172 -0.359070
7.690000 -36.969082 252.587922 -0.000000 0.315165 0.502915 -0.118085 -16.139680 372.308289 -0.000000 0.181329 0.167487 -0.359051
7.695000 -38.482650 250.883127 -0.000000 0.315936 0.502428 -0.117916 -14.877380 377.158406 -0.000000 0.180258 0.167821 -0.359063
7.700000 -40.239380 249.243582 -0.000000 0.316710 0.502006 -0.117944 -13.927492 381.335098 -0.000000 0.179181 0.168144 -0.358996
7.705000 -42.095633 247.711146 -0.000000 0.317507 0.501580 -0.117939 -13.207455 384.739047 -0.000000 0.178091 0.168551 -0.358992
7.710000 -43.912666 246.335140 -0.000000 0.318319 0.501041 -0.117938 -12.672558 387.298667 -0.000000 0.176979 0.169003 -0.358963
7.715000 -45.729421 245.138937 -0.000000 0.319147 0.500563 -0.117916 -12.545770 388.976748 -0.000000 0.175958 0.169352 -0.358939
7.720000 -47.354661 244.183850 -0.000000 0.319955 0.500084 -0.117921 -12.620852 389.806788 -0.000000 0.174915 0.169772 -0.358912
7.725000 -48.771092 243.480936 -0.000000 0.320762 0.499561 -0.117867 -12.882566 389.861656 -0.000000 0.173929 0.170305 -0.358888
7.730000 -50.033108 243.000623 -0.000000 0.321554 0.499077 -0.117894 -13.380060 389.238430 -0.000000 0.172927 0.170681 -0.358891
7.735000 -51.136673 242.721463 -0.000000 0.322271 0.498628 -0.117869 -14.066198 388.056506 -0.000000 0.171969 0.171163 -0.358899
7.740000 -52.007068 242.656254 -0.000000 0.323016 0.498067 -0.117930 -14.807031 386.448541 -0.000000 0.171091 0.171645 -0.358896
7.745000 -52.742452 242.788913 -0.000000 0.323683 0.497601 -0.117921 -15.753065 384.537005 -0.000000 0.170253 0.172049 -0.358905
7.750000 -53.281751 243.122092 -0.000000 0.324356 0.497186 -0.117959 -16.773845 382.449811 -0.000000 0.169504 0.172487 -0.358946
7.755000 -53.601216 243.633939 -0.000000 0.324945 0.496645 -0.117954 -17.769368 380.293568 -0.000000 0.168741 0.172948 -0.358927
7.760000 -53.849169 244.264829 -0.000000 0.325516 0.496242 -0.117982 -18.903181 378.120238 -0.000000 0.168006 0.173312 -0.358989
7.765000 -54.011088 245.001015 -0.000000 0.326060 0.495744 -0.118032 -20.101867 375.938551 -0.000000 0.167381 0.173702 -0.359038
7.770000 -54.191680 245.805590 -0.000000 0.326522 0.495412 -0.118026 -21.503893 373.704594 -0.000000 0.166789 0.174031 -0.359103
7.775000 -54.302166 246.683219 -0.000000 0.326934 0.495006 -0.118045 -22.976733 371.379788 -0.000000 0.166313 0.174425 -0.359108
7.780000 -54.340582 247.624570 -0.000000 0.327309 0.494656 -0.118044 -24.533343 368.935400 -0.000000 0.165847 0.174702 -0.359136
7.785000 -54.189019 248.648193 -0.000000 0.327655 0.494222 -0.118036 -25.997667 366.384407 -0.000000 0.165392 0.175008 -0.359148
7.790000 -53.941652 249.719662 -0.000000 0.327964 0.493909 -0.118039 -27.475435 363.758362 -0.000000 0.164963 0.175281 -0.359204
7.795000 -53.606645 250.819987 -0.000000 0.328204 0.493623 -0.118000 -28.921572 361.135288 -0.000000 0.164575 0.175528 -0.359228
7.800000 -53.142014 251.945767 -0.000000 0.328451 0.493314 -0.118030 -30.214110 358.613016 -0.000000 0.164245 0.175780 -0.359255
7.805000 -52.634333 253.066719 -0.000000 0.328652 0.493073 -0.118002 -31.408294 356.251654 -0.000000 0.163933 0.176009 -0.359284
7.810000 -52.092637 254.153265 -0.000000 0.328836 0.492800 -0.117997 -32.442492 354.078832 -0.000000 0.163636 0.176188 -0.359322
7.815000 -51.553215 255.150192 -0.000000 0.329031 0.492582 -0.118047 -33.303078 352.095152 -0.000000 0.163303 0.176326 -0.359362
7.820000 -51.118628 255.984701 -0.000000 0.329191 0.492384 -0.118014 -34.082706 350.299152 -0.000000 0.163013 0.176490 -0.359410
7.825000 -50.831027 256.613428 -0.000000 0.329361 0.492172 -0.118011 -34.803219 348.709390 -0.000000 0.162802 0.176643 -0.359396
7.830000 -50.675305 257.035456 -0.000000 0.329534 0.492007 -0.118034 -35.424226 347.355951 -0.000000 0.162565 0.176771 -0.359385
7.835000 -50.672202 257.263714 -0.000000 0.329683 0.491877 -0.118047 -35.970632 346.261452 -0.000000 0.162314 0.176869 -0.359405
7.840000 -50.737047 257.328991 -0.000000 0.329846 0.491705 -0.118204 -36.338515 345.448284 -0.000000 0.162045 0.176977 -0.359422
7.845000 -50.913449 257.226959 -0.000000 0.329993 0.491569 -0.118197 -36.607350 344.897503 -0.000000 0.161769 0.177078 -0.359438
7.850000 -51.189789 256.960864 -0.000000 0.330133 0.491451 -0.118187 -36.796225 344.576661 -0.000000 0.161516 0.177180 -0.359467
7.855000 -51.510905 256.548126 -0.000000 0.330268 0.491304 -0.118175 -36.883616 344.444643 -0.000000 0.161261 0.177294 -0.359457
7.860000 -51.905096 256.003638 -0.000000 0.330403 0.491186 -0.118160 -36.966823 344.444712 -0.000000 0.161024 0.177343 -0.359453
7.865000 -52.324092 255.366530 -0.000000 0.330524 0.491065 -0.118126 -37.023382 344.544503 -0.000000 0.160799 0.177374 -0.359439
7.870000 -52.730351 254.669292 -0.000000 0.330654 0.490958 -0.118112 -37.017561 344.731417 -0.000000 0.160603 0.177448 -0.359407
7.875000 -53.106099 253.934480 -0.000000 0.330774 0.490860 -0.118133 -36.927160 344.997274 -0.000000 0.160380 0.177510 -0.359383
7.880000 -53.439293 253.185756 -0.000000 0.330867 0.490743 -0.118103 -36.744454 345.326404 -0.000000 0.160142 0.177594 -0.359365
7.885000 -53.747619 252.453397 -0.000000 0.330975 0.490664 -0.118072 -36.522442 345.696992 -0.000000 0.159935 0.177666 -0.359349
7.890000 -54.014284 251.790912 -0.000000 0.331045 0.490584 -0.118047 -36.284177 346.095011 -0.000000 0.159737 0.177716 -0.359342
7.895000 -54.219506 251.249661 -0.000000 0.331105 0.490526 -0.118020 -36.039986 346.504045 -0.000000 0.159577 0.177763 -0.359330
7.900000 -54.338351 250.856309 -0.000000 0.331166 0.490475 -0.118005 -35.767272 346.902428 -0.000000 0.159444 0.177808 -0.359309
7.905000 -54.400453 250.599650 -0.000000 0.331204 0.490434 -0.118018 -35.507033 347.253091 -0.000000 0.159324 0.177807 -0.359280
7.910000 -54.396817 250.465840 -0.000000 0.331228 0.490391 -0.118014 -35.260765 347.511000 -0.000000 0.159240 0.177819 -0.359256
7.915000 -54.316579 250.436735 -0.000000 0.331209 0.490384 -0.117981 -35.048240 347.620909 -0.000000 0.159122 0.177829 -0.359228
7.920000 -54.173386 250.480627 -0.000000 0.331175 0.490365 -0.117977 -34.929821 347.525649 -0.000000 0.159076 0.177848 -0.359206
7.925000 -53.956728 250.568442 -0.000000 0.331109 0.490361 -0.117960 -34.926290 347.179023 -0.000000 0.159055 0.177844 -0.359170
